<?xml version="1.0" encoding="UTF-8" standalone="no"?>
<svg width="37px" height="30px" viewBox="0 0 37 30" version="1.1" xmlns="http://www.w3.org/2000/svg" xmlns:xlink="http://www.w3.org/1999/xlink">
    <!-- Generator: Sketch 41 (35326) - http://www.bohemiancoding.com/sketch -->
    <title>NASA_logo</title>
    <desc>Created with Sketch.</desc>
    <defs></defs>
    <g id="Page-1" stroke="none" stroke-width="1" fill="none" fill-rule="evenodd">
        <g id="NASA_logo">
            <path d="M31.8444915,15 C31.8444915,23.2141525 25.0774576,29.9745763 16.854661,29.9745763 C8.63199153,29.9745763 1.86483051,23.2137712 1.86483051,15 C1.86483051,6.78533898 8.47372881,0.0254237288 16.854661,0.0254237288 C24.9186864,0.0254237288 31.8444915,6.78572034 31.8444915,15" id="Shape" fill="#1A5DAD"></path>
            <path d="M20.2360169,22.8813559 C26.6401271,25.5157627 25.5287288,18.8584322 22.1150847,13.7609746 C20.180339,10.8730932 17.6570339,8.46711864 16.0655085,7.30588983 C10.7884322,3.45444915 7.53076271,5.79038136 11.2571186,13.3859746 C12.461911,15.8417797 14.0093644,17.4992797 15.2180085,19.0615678 C16.1410169,20.2542966 17.9388559,20.8515254 17.3055508,21.4175847 C16.5918559,22.0558093 14.8637288,19.2408051 14.8637288,19.2408051 C13.5874576,17.7013983 12.3709322,16.0590254 11.117161,13.8052119 C8.25254237,8.6570339 8.66555085,3.40271186 13.8505932,5.69148305 C18.2508051,7.63487288 22.4537288,13.0854661 24.1435169,16.9562288 C24.9240381,18.7433898 27.0519915,25.8153814 20.2744068,22.9562288" id="Shape" fill="#FFFFFF"></path>
            <path d="M0.321101695,19.4389831 C3.1384322,17.5627119 5.80957627,16.3512712 10.3552119,14.85 C16.7427966,12.7398305 21.5504237,11.3214407 27.4488559,8.35652542 C30.0891102,7.02966102 34.6704661,4.05394068 36.3090254,1.46694915 C35.8183475,2.46813559 34.2992797,4.41686441 33.6115678,5.27885593 C25.608178,15.3 8.56029661,14.7317797 0.433601695,19.542839" id="Shape" fill="#EE293D"></path>
            <path d="M4.40822034,12.1147881 C6.98669492,12.1350203 6.73372881,12.1096119 6.76385593,12.1398178 C6.80892839,12.1398178 8.82266949,15.6078686 8.82266949,15.6377415 C8.82266949,15.6525597 8.80761356,14.4053136 8.80761356,12.8454534 C8.80761356,12.6653008 8.31191441,12.1398814 8.32673644,12.1398814 C9.06270254,12.1398814 10.0246602,12.1549373 10.0246602,12.1549373 C9.66422797,12.5753059 9.59222797,12.5408314 9.58922797,12.8005729 C9.57906483,13.6359458 9.56956525,15.1797254 9.58922797,16.913878 C9.59202966,17.1738102 9.78462203,17.2741703 10.1001686,17.7246025 L7.74059237,17.7246025 C6.97418136,16.4485856 5.56978729,14.0548144 5.57677881,14.0615517 C5.58755975,14.072522 5.54652458,15.5630771 5.59145466,16.7637127 C5.60665297,17.1605263 5.78698856,17.2890941 6.11778941,17.6495771 C6.11778941,17.6495771 6.49826822,17.6393695 4.26923008,17.6644424 C4.94545042,17.30415 4.8556411,16.8538576 4.85531059,16.8388449 C4.83099407,15.1796924 4.85027669,13.7611754 4.85027669,12.8454127 C4.85027669,12.6953364 4.84006525,12.7101458 4.37443347,12.1398407" id="Shape" fill="#FFFFFF"></path>
            <path d="M12.470339,14.6771186 C12.6868602,13.9255169 12.8718051,13.2537712 12.9595805,12.8158475 C12.9744458,12.7407114 12.7943008,12.4706059 12.5087669,12.2002754 L12.4885347,12.1583377 C13.8653568,12.1628021 15.3037042,12.1702119 15.3037042,12.1702119 C15.6793907,13.086 16.5359415,15.6528814 17.1821364,17.2292797 C17.353022,17.6459492 17.6480136,17.7245975 17.6480136,17.7245975 C16.4758525,17.7097792 14.3005983,17.7198051 14.3121661,17.7097792 C14.8980559,17.1840165 14.8229161,17.1840165 14.5674458,16.4186352 L12.7342678,16.4186352 C12.3585814,17.2891182 12.8513415,17.6978301 12.9144203,17.6946521 C12.4971788,17.7161669 11.0812424,17.6946521 11.0812424,17.6946521 C11.8476534,17.1540292 11.8023992,16.9890801 11.8023992,16.9890801 C12.0129839,16.240097 12.2569246,15.4195462 12.4704585,14.6766648 L13.2225814,14.6767919 C13.0610008,15.1950038 12.8994331,15.7127835 12.8994331,15.7127835 L14.3574839,15.7127835 L13.5458059,13.6410038 C13.5458059,13.6410038 13.3842254,14.1589742 13.2226068,14.6767665 L12.4704839,14.6766394" id="Shape" fill="#FFFFFF"></path>
            <path d="M25.0639831,14.7521186 C25.2800847,14.0007076 25.4652585,13.3287712 25.5528432,12.8905932 C25.5676614,12.8158373 25.387322,12.5457331 25.1019788,12.2752119 L25.0816042,12.2334648 C26.4588076,12.2379292 27.8975364,12.245339 27.8975364,12.245339 C28.2726508,13.1611271 29.1293924,15.7281356 29.7754602,17.3044068 C29.9461551,17.7212669 30.2411466,17.7999153 30.2411466,17.7999153 C29.0695576,17.7847169 26.8942398,17.7951229 26.9054263,17.7847169 C27.4916975,17.2595263 27.4165576,17.2595263 27.1610873,16.4938271 L25.327528,16.4938271 C24.9518034,17.3644881 25.444364,17.773022 25.5074771,17.7700983 C25.0905788,17.7914225 23.6744263,17.7700983 23.6744263,17.7700983 C24.4406466,17.2294754 24.3957229,17.0643356 24.3957229,17.0643356 C24.6063076,16.3152127 24.8502864,15.4949288 25.064011,14.7521746 L25.8159432,14.7521746 C25.6539941,15.2703356 25.4931254,15.7883059 25.4931254,15.7883059 L26.9504136,15.7883059 L26.1387864,13.7165263 C26.1387864,13.7165263 25.9777271,14.2343059 25.8159686,14.7521364 L25.0640364,14.7521364" id="Shape" fill="#FFFFFF"></path>
            <path d="M22.6932203,13.5216102 C22.6631555,12.4554153 22.6932203,12.1102119 22.6932203,12.1102119 C22.2271525,12.4857076 22.4622585,12.437822 21.2958051,12.245428 C17.9341525,11.6907458 17.6780085,14.8291144 19.5073729,15.5330975 C21.0429661,16.124161 21.587161,16.2399534 21.3555508,16.7939364 C21.2804148,16.9744576 19.8830085,17.6349153 18.4405932,16.2987585 L18.470278,18.1602839 C18.6506085,17.9745763 19.1468797,17.6349025 19.1468797,17.6349025 C19.1616979,17.6349025 20.710439,18.31725 22.1069644,17.6046483 C24.2562864,16.5089492 23.1835703,14.7353263 20.8899178,14.0318517 C18.9813585,13.4462924 20.7847169,12.080072 22.6779686,13.5364831" id="Shape" fill="#FFFFFF"></path>
            <path id="Shape" fill="#FFFFFF"></path>
            <path id="Shape" fill="#FFFFFF"></path>
            <path id="Shape" fill="#FFFFFF"></path>
            <path id="Shape" fill="#FFFFFF"></path>
            <path id="Shape" fill="#FFFFFF"></path>
            <path id="Shape" fill="#FFFFFF"></path>
            <path id="Shape" fill="#FFFFFF"></path>
            <path id="Shape" fill="#FFFFFF"></path>
            <path id="Shape" fill="#FFFFFF"></path>
            <path id="Shape" fill="#FFFFFF"></path>
            <path id="Shape" fill="#FFFFFF"></path>
            <path id="Shape" fill="#FFFFFF"></path>
            <path id="Shape" fill="#FFFFFF"></path>
            <path id="Shape" fill="#FFFFFF"></path>
            <path id="Shape" fill="#FFFFFF"></path>
            <path id="Shape" fill="#FFFFFF"></path>
            <path id="Shape" fill="#FFFFFF"></path>
            <path id="Shape" fill="#FFFFFF"></path>
            <path id="Shape" fill="#FFFFFF"></path>
            <path id="Shape" fill="#FFFFFF"></path>
            <path id="Shape" fill="#FFFFFF"></path>
            <path id="Shape" fill="#FFFFFF"></path>
            <path id="Shape" fill="#FFFFFF"></path>
            <path id="Shape" fill="#FFFFFF"></path>
            <path id="Shape" fill="#FFFFFF"></path>
            <path id="Shape" fill="#FFFFFF"></path>
            <path id="Shape" fill="#FFFFFF"></path>
            <path id="Shape" fill="#FFFFFF"></path>
            <path id="Shape" fill="#FFFFFF"></path>
            <path id="Shape" fill="#FFFFFF"></path>
            <path id="Shape" fill="#FFFFFF"></path>
            <path id="Shape" fill="#FFFFFF"></path>
            <path id="Shape" fill="#FFFFFF"></path>
            <path id="Shape" fill="#FFFFFF"></path>
            <path id="Shape" fill="#FFFFFF"></path>
            <path id="Shape" fill="#FFFFFF"></path>
            <polyline id="Shape" fill="#FFFFFF" points="28.2661017 19.1008475 28.2100589 19.616822 27.698025 19.6731966 28.2141521 19.7292407 28.2707174 20.2642576 28.3273309 19.7292407 28.8343309 19.6637453 28.3226784 19.616822 28.2661131 19.1008475"></polyline>
            <path id="Shape" fill="#FFFFFF"></path>
            <polyline id="Shape" fill="#FFFFFF" points="26.9516949 22.3652542 26.8951284 22.8812288 26.383425 22.9376047 26.8997301 22.9940275 26.9563424 23.5286758 27.0129089 22.9940275 27.5197691 22.9283428 27.0077352 22.8812288 26.9516924 22.3652542"></polyline>
            <path id="Shape" fill="#FFFFFF"></path>
            <polyline id="Shape" fill="#FFFFFF" points="12.9381356 6.86478814 12.8817114 7.38072458 12.3696775 7.43714746 12.886364 7.49319025 12.9427869 8.02821992 12.9989733 7.49319025 13.5062148 7.42788559 12.9941809 7.38072331 12.9381381 6.86478686"></polyline>
            <path id="Shape" fill="#FFFFFF"></path>
            <polyline id="Shape" fill="#FFFFFF" points="19.9258475 2.32334746 19.8698034 2.83947458 19.3577695 2.89589746 19.8744559 2.95227331 19.9304987 3.48715042 19.9870653 2.95227331 20.4941161 2.88639915 19.9820822 2.83947458 19.9258487 2.32334746"></polyline>
            <path id="Shape" fill="#FFFFFF"></path>
            <polyline id="Shape" fill="#FFFFFF" points="11.435339 25.3677966 11.3791525 25.8839237 10.8672585 25.9403225 11.3838051 25.9965369 11.4401809 26.531414 11.4964144 25.9965369 12.0036051 25.9310479 11.4917619 25.8839237 11.435339 25.3677966"></polyline>
            <path d="M36.3076271,1.46707627 C34.0233051,8.24402542 24.8720339,13.4771186 17.1686441,18.4730085 C12.5213136,21.4875 7.90728814,24.9574576 4.73084746,27.9101695 C3.8935678,28.6888347 4.90145339,27.6190805 4.58058051,27.9478335 C9.01346186,22.8436386 14.1126992,19.8034691 16.9305381,17.8899521 C21.696089,14.6523674 24.4066398,13.8363928 32.6284195,6.26329958" id="Shape" fill="#EE293D"></path>
            <path d="M2.22648305,18.2567797 C1.40611017,18.6581059 0.671186441,19.054678 0.0476694915,19.4417669 L0.427067797,19.5798305 C0.972355932,19.2439958 1.62705508,18.8937331 2.31668644,18.5850127" id="Shape" fill="#EE293D"></path>
            <path d="M6.55766949,25.840678 C5.80773305,26.4951992 5.03262712,27.1938559 4.25516949,27.9261864 L4.22083093,28.4436356 C4.93266992,27.7104153 5.80714449,26.9184661 6.81633941,26.0782119" id="Shape" fill="#EE293D"></path>
            <path d="M20.2360169,22.8813559 C26.6401271,25.5157627 25.5287288,18.8584322 22.1150847,13.7609746 C20.180339,10.8730932 17.794322,8.58216102 16.0655085,7.30588983 C14.0468644,5.81542373 13.8498305,5.69186441 13.8498305,5.69186441 C18.3577119,7.83139831 22.4529661,13.0857203 24.1427542,16.9566102 C24.9232754,18.7437712 27.0512288,25.8157627 20.2736441,22.9566102" id="Shape" fill="#FFFFFF"></path>
        </g>
    </g>
</svg>